<svg width="100" height="81" viewBox="0 0 100 81" fill="none" xmlns="http://www.w3.org/2000/svg">
<path d="M95.3602 17.1734L88.8238 15.4176L86.8188 14.8852L79.4781 12.9141V5.30156C79.4781 1.71055 77.609 0 74.1766 0H5.30156C1.88047 0 0 1.71055 0 5.30156V60.0504C0 63.6414 1.86914 65.352 5.30156 65.352H22.6902L78.4246 80.2824C81.7324 81.166 83.9754 79.9992 84.9156 76.5328L86.7395 69.7133L99.0758 23.6531C100.027 20.1867 98.6566 18.057 95.3602 17.1734ZM8.84727 60.0504C5.99258 60.0504 5.31289 58.3285 5.31289 56.516V8.83594C5.31289 5.98125 7.03477 5.30156 8.84727 5.30156H70.6535C72.466 5.30156 74.1879 5.98125 74.1879 8.83594V56.516C74.1879 58.3285 73.5082 60.0504 70.6535 60.0504H8.84727ZM80.7242 71.7637C80.2598 73.5082 79.1496 74.9922 76.3969 74.2559L79.3082 75.0375L43.1715 65.352H74.1879C77.609 65.352 79.4895 63.6414 79.4895 60.0504V18.4082L90.5684 21.3762C92.3129 21.8406 93.7969 22.9508 93.0605 25.7035L93.9781 22.2938L80.7242 71.7637ZM21.2063 14.1375C17.3094 14.1375 14.1375 17.298 14.1375 21.2062C14.1375 25.1031 17.298 28.275 21.2063 28.275C25.1031 28.275 28.275 25.1145 28.275 21.2062C28.2637 17.298 25.1031 14.1375 21.2063 14.1375Z" fill="white"/>
<path d="M7.72634 63.2231C7.1033 63.2231 6.48025 63.0192 5.97048 62.6C4.78103 61.6258 4.61111 59.8813 5.574 58.6918L22.2377 38.3239C23.1666 37.191 24.8092 36.9758 25.9986 37.8254L36.6697 45.4492L51.7361 23.6879C52.2685 22.9176 53.1181 22.4645 54.1037 22.4871C55.0439 22.5098 55.9049 23.0082 56.392 23.8125L76.7599 57.1512C77.5642 58.4653 77.1451 60.1645 75.8424 60.9688C74.5283 61.7617 72.8177 61.3539 72.0248 60.0512L53.8771 30.3375L39.6377 50.9094C39.2185 51.5211 38.5615 51.9403 37.8252 52.0649C37.1002 52.1895 36.3412 52.0196 35.7295 51.5891L24.8885 43.8407L9.87869 62.2035C9.32361 62.8719 8.53064 63.2231 7.72634 63.2231Z" fill="white"/>
</svg>
