<svg width="84" height="83" viewBox="0 0 84 83" fill="none" xmlns="http://www.w3.org/2000/svg">
<path fill-rule="evenodd" clip-rule="evenodd" d="M42 79C62.7107 79 79.5 62.2107 79.5 41.5C79.5 20.7893 62.7107 4 42 4C21.2893 4 4.5 20.7893 4.5 41.5C4.5 62.2107 21.2893 79 42 79ZM42 83C64.9198 83 83.5 64.4198 83.5 41.5C83.5 18.5802 64.9198 0 42 0C19.0802 0 0.5 18.5802 0.5 41.5C0.5 64.4198 19.0802 83 42 83Z" fill="white"/>
<path d="M57.2369 39.9448C59.193 41.1725 59.0865 44.0573 57.0453 45.1375L36.9558 55.7684C34.9146 56.8485 32.4695 55.314 32.5547 53.0061L33.3928 30.2927C33.4779 27.9848 36.0295 26.6346 37.9855 27.8623L57.2369 39.9448Z" fill="white"/>
</svg>
