<svg width="126" height="124" viewBox="0 0 126 124" fill="none" xmlns="http://www.w3.org/2000/svg">
<path fill-rule="evenodd" clip-rule="evenodd" d="M0 93.9665C1.13411 96.382 2.19386 99.2188 3.40234 101.213C19.6689 128.055 75.3892 99.0709 92.8115 86.1628C98.7862 81.7362 106.245 74.0128 110.883 68.1028C118.335 58.6067 121.107 49.9461 125.05 38.8945C122.736 47.385 121.965 50.9732 118.022 58.9055C113.99 67.0192 107.963 74.9663 101.624 81.4806C85.7383 97.8067 22.3343 133.492 4.07166 105.254C2.10685 102.217 0.985378 97.4596 0 93.9665Z" fill="#E5270E"/>
<path fill-rule="evenodd" clip-rule="evenodd" d="M10.9702 88.7157C11.9935 90.8956 12.9507 93.4567 14.0409 95.256C28.6944 119.436 80.2799 93.1728 95.9545 81.5586C101.348 77.5631 108.079 70.5918 112.266 65.2577C118.992 56.687 121.493 48.8692 125.053 38.8945C122.964 46.5578 122.267 49.7967 118.709 56.9561C115.069 64.2789 109.629 71.4524 103.908 77.332C89.5737 92.0632 31.0809 124.317 14.644 98.9029C12.8711 96.1612 11.8582 91.8677 10.9688 88.715L10.9702 88.7157Z" fill="#FFEB00"/>
<path fill-rule="evenodd" clip-rule="evenodd" d="M18.7031 82.692C19.6298 84.6652 20.4954 86.9833 21.483 88.6124C34.2297 109.646 83.4562 86.5589 98.7129 77.5126C103.939 74.4141 109.688 67.5862 113.477 62.7576C119.566 54.9992 121.83 47.9238 125.052 38.8945C123.161 45.8309 122.531 48.7629 119.31 55.243C112.185 69.5803 93.339 87.0547 78.6074 91.9955C74.0977 93.508 84.4253 87.8975 79.4493 90.1613C58.0736 99.884 31.1985 106.09 22.0304 91.9138C20.4255 89.4322 19.5085 85.5452 18.7039 82.692H18.7031Z" fill="#303030"/>
<path fill-rule="evenodd" clip-rule="evenodd" d="M28.1855 76.7032C29.0118 78.4631 29.7837 80.5293 30.6642 81.9823C41.641 100.096 89.9781 81.9146 101.566 73.329C105.919 70.1042 111.352 64.4781 114.731 60.1727C120.16 53.2549 122.179 46.9457 125.052 38.8945C123.366 45.0795 122.803 47.6934 119.932 53.4719C116.995 59.3827 113.542 64.1333 108.926 68.8787C100.57 77.4657 94.78 80.6073 82.2311 87.0019C63.7953 96.3954 38.9779 97.0263 31.1521 84.9261C29.7213 82.7136 28.9039 79.248 28.1855 76.7032Z" fill="#3A93D1"/>
<path fill-rule="evenodd" clip-rule="evenodd" d="M36.9434 72.3443C37.6566 73.8641 38.3236 75.6486 39.0837 76.9031C49.3167 93.7889 93.8112 76.7515 104.772 68.6312C115.964 60.3384 120.5 51.6547 125.053 38.8945C123.597 44.236 123.112 46.4931 120.631 51.4831C118.095 56.5874 114.303 61.587 110.315 65.6851C107.163 68.924 99.3747 76.0982 90.8194 79.954C87.0318 81.6612 83.6771 80.4319 79.5147 81.8158C63.2675 87.2189 45.7664 89.1275 39.5046 79.4457C38.2686 77.5349 37.5628 74.542 36.9434 72.345V72.3443Z" fill="#64B32C"/>
<path fill-rule="evenodd" clip-rule="evenodd" d="M25.8192 26.3102C36.903 28.6424 45.3892 31.6792 55.8268 36.3436C59.9668 38.1934 64.9495 41.1581 67.484 42.1406C71.656 43.7586 72.6265 40.759 74.5118 38.5732C75.2718 37.6918 76.304 37.0794 77.8026 35.4517C83.7126 29.0319 94.6938 16.7666 92.639 7.41406C94.9801 9.03352 96.501 10.9049 95.9856 14.103C94.1963 25.2066 83.1013 41.3588 75.6831 49.4984C74.7758 50.4943 69.8771 54.7143 69.8266 55.2955C69.805 55.5467 69.9515 55.7726 70.1612 56.0201C72.66 58.9714 73.8953 58.4668 75.5998 62.9877C76.2609 64.7417 78.3209 69.5273 78.5001 71.3771C78.6794 73.2262 77.1712 72.153 76.5205 72.4919C75.8697 72.8308 75.2822 73.3912 74.5958 73.4113C73.9101 73.4321 73.6015 73.3682 72.7835 72.6034C71.9654 71.8386 70.3895 69.6633 69.7991 68.9245C68.6188 67.4477 68.4716 68.3106 68.0142 69.6216C65.7936 75.9865 56.1845 83.6327 50.7794 87.6542C38.8567 96.5237 25.878 102.065 11.8477 106.606C15.7334 104.451 19.4347 102.774 23.5049 100.14C30.8502 95.3866 37.524 90.271 43.4727 83.8638C46.3485 80.7668 50.2008 76.3321 53.4566 72.2697C57.5261 67.1921 61.3062 61.7644 65.2321 56.5508C66.1372 55.349 65.923 55.0473 65.0023 54.0566C64.0623 53.045 61.8476 50.4379 60.0315 48.6638C56.1956 44.9165 51.8451 41.416 47.3146 38.5465C42.0605 35.2191 36.5959 32.2084 31.1953 29.1263L25.8199 26.311L25.8192 26.3102Z" fill="#303030"/>
<path d="M70.1002 32.2971C72.5853 31.1035 73.6316 28.1226 72.4372 25.6391C71.2429 23.1556 68.2601 22.11 65.775 23.3036C63.2899 24.4972 62.2436 27.4781 63.438 29.9616C64.6324 32.4451 67.6152 33.4908 70.1002 32.2971Z" fill="#303030"/>
<path fill-rule="evenodd" clip-rule="evenodd" d="M34.5813 104.947C39.5573 101.231 47.7519 94.9424 53.099 90.1197C61.2505 82.7678 71.2917 71.6077 77.6405 62.5836C79.3138 60.2054 80.6539 58.3258 81.3217 57.2325C81.9896 56.1393 81.6006 56.4863 81.6147 56.0761C81.6289 55.6658 81.5292 55.1619 81.4058 54.8215C81.2823 54.4811 81.7345 54.9947 80.8897 54.0828C80.0448 53.1709 78.724 51.4139 76.3435 49.3589C73.963 47.3032 70.2505 44.2806 66.6385 41.7782C63.0264 39.2758 58.6811 36.8358 54.7024 34.3646L36.0732 23.2997C41.0186 25.5293 46.9755 28.3156 50.9096 29.9886C63.248 35.2357 87.1172 43.3649 97.5942 33.1101C107.357 23.5546 109.576 12.7387 112.013 0C111.91 11.3622 110.768 18.2733 105.766 28.5393C102.26 35.7336 97.8939 41.8012 92.8815 48.0486C90.3582 51.1939 87.7643 53.5388 86.6346 54.7376C85.505 55.9364 86.2233 55.0378 86.1051 55.2392C85.9861 55.4406 85.9318 55.6866 85.9519 55.894C85.972 56.1021 86.0002 56.1668 86.2166 56.4098C86.4331 56.6521 86.8161 56.8996 87.2348 57.3291C87.6535 57.7595 88.0877 57.9705 88.7266 58.9872C89.3654 60.004 90.4564 61.8754 91.0409 63.3908C91.6255 64.9062 91.9095 66.3272 92.2122 68.0173C92.5149 69.7073 92.6629 70.6029 92.8533 73.5074C93.5813 84.5998 93.379 91.9026 88.9489 102.27C86.8279 107.232 76.7912 122.614 71.2679 123.897C68.9536 124.435 63.9107 122.759 62.1764 121.277C60.7426 120.053 61.1813 116.594 60.0011 115.257C56.2983 111.063 50.9862 112.94 46.838 113.808C36.5194 115.967 31.0198 116.31 21.4531 115.301C25.0659 109.516 28.8937 109.191 34.5813 104.945V104.947Z" fill="#E5270E"/>
<path d="M84.0204 34.6096C86.7729 34.4572 88.8808 32.1037 88.7283 29.3529C88.5759 26.6021 86.2209 24.4956 83.4683 24.648C80.7158 24.8003 78.608 27.1538 78.7604 29.9046C78.9128 32.6555 81.2678 34.7619 84.0204 34.6096Z" fill="#E5270E"/>
</svg>
