<svg width="161" height="65" viewBox="0 0 161 65" fill="none" xmlns="http://www.w3.org/2000/svg">
<g clip-path="url(#clip0_203_1861)">
<path fill-rule="evenodd" clip-rule="evenodd" d="M41.0625 46.0714C41.6186 47.2557 42.1382 48.6467 42.7307 49.6243C50.7063 62.7851 78.0263 48.5741 86.5685 42.2452C89.4979 40.0749 93.1548 36.288 95.429 33.3903C99.083 28.7343 100.442 24.488 102.375 19.0693C101.241 23.2323 100.862 24.9916 98.9295 28.8808C96.9524 32.859 93.9971 36.7555 90.8894 39.9495C83.1005 47.9543 52.0131 65.451 43.0589 51.606C42.0955 50.1167 41.5456 47.7841 41.0625 46.0714Z" fill="#E5270E"/>
<path fill-rule="evenodd" clip-rule="evenodd" d="M46.4402 43.4969C46.9419 44.5657 47.4112 45.8215 47.9457 46.7037C55.1304 58.5591 80.4231 45.6823 88.1084 39.9878C90.7527 38.0287 94.0534 34.6107 96.1059 31.9954C99.404 27.7931 100.63 23.96 102.375 19.0693C101.351 22.8267 101.01 24.4147 99.265 27.925C97.4805 31.5154 94.8133 35.0326 92.0082 37.9154C84.9799 45.1382 56.3005 60.9525 48.2415 48.4918C47.3722 47.1475 46.8756 45.0424 46.4395 43.4966L46.4402 43.4969Z" fill="#FFEB00"/>
<path fill-rule="evenodd" clip-rule="evenodd" d="M50.2324 40.5435C50.6868 41.511 51.1112 42.6475 51.5954 43.4463C57.8452 53.7592 81.9812 42.4395 89.4616 38.004C92.0239 36.4848 94.8429 33.137 96.7007 30.7695C99.6859 26.9655 100.796 23.4964 102.376 19.0693C101.449 22.4703 101.14 23.9078 99.5605 27.0851C96.0669 34.1147 86.8268 42.6825 79.6038 45.105C77.3927 45.8466 82.4563 43.0957 80.0166 44.2057C69.536 48.9728 56.359 52.0155 51.8638 45.065C51.0769 43.8482 50.6273 41.9424 50.2328 40.5435H50.2324Z" fill="#303030"/>
<path fill-rule="evenodd" clip-rule="evenodd" d="M54.8809 37.6071C55.286 38.47 55.6645 39.4831 56.0962 40.1955C61.4781 49.0767 85.1781 40.1623 90.8598 35.9528C92.9939 34.3716 95.6579 31.6131 97.3144 29.5021C99.9763 26.1103 100.966 23.0169 102.375 19.0693C101.549 22.1019 101.273 23.3835 99.8647 26.2167C98.4244 29.1148 96.7318 31.444 94.4681 33.7707C90.3711 37.981 87.5325 39.5213 81.3797 42.6566C72.3405 47.2623 60.1724 47.5717 56.3354 41.6389C55.6338 40.554 55.2331 38.8548 54.8809 37.6071Z" fill="#3A93D1"/>
<path fill-rule="evenodd" clip-rule="evenodd" d="M59.1758 35.4699C59.5255 36.2151 59.8525 37.09 60.2252 37.7052C65.2425 45.9843 87.0584 37.6308 92.4323 33.6494C97.92 29.5834 100.144 25.3257 102.376 19.0693C101.663 21.6883 101.425 22.795 100.208 25.2416C98.9647 27.7443 97.1054 30.1956 95.1503 32.2049C93.605 33.793 89.7862 37.3105 85.5915 39.201C83.7344 40.0381 82.0896 39.4353 80.0487 40.1138C72.0826 42.763 63.5018 43.6988 60.4316 38.9518C59.8256 38.0149 59.4795 36.5475 59.1758 35.4703V35.4699Z" fill="#64B32C"/>
<path fill-rule="evenodd" clip-rule="evenodd" d="M53.7214 12.8997C59.1559 14.0431 63.3167 15.5321 68.4343 17.8191C70.4642 18.7261 72.9072 20.1797 74.1499 20.6614C76.1955 21.4547 76.6713 19.984 77.5957 18.9123C77.9683 18.4801 78.4744 18.1798 79.2091 17.3818C82.1069 14.2341 87.491 8.22039 86.4835 3.63477C87.6314 4.4288 88.3771 5.34636 88.1244 6.91437C87.2471 12.3585 81.8071 20.278 78.1699 24.269C77.7251 24.7573 75.3233 26.8263 75.2985 27.1113C75.2879 27.2345 75.3597 27.3452 75.4626 27.4666C76.6877 28.9136 77.2934 28.6662 78.1291 30.8828C78.4533 31.7428 79.4633 34.0892 79.5512 34.9962C79.639 35.9028 78.8996 35.3766 78.5805 35.5428C78.2615 35.709 77.9734 35.9837 77.6369 35.9936C77.3007 36.0038 77.1493 35.9724 76.7483 35.5975C76.3472 35.2225 75.5745 34.1559 75.285 33.7937C74.7063 33.0696 74.6341 33.4927 74.4099 34.1355C73.3211 37.2562 68.6097 41.0052 65.9595 42.9769C60.1138 47.3257 53.7502 50.0427 46.8711 52.2692C48.7763 51.2124 50.5911 50.3903 52.5867 49.0989C56.1882 46.7682 59.4604 44.26 62.377 41.1185C63.7871 39.6 65.6759 37.4257 67.2722 35.4338C69.2675 32.9443 71.1209 30.283 73.0458 27.7268C73.4895 27.1375 73.3845 26.9896 72.9331 26.5038C72.4722 26.0079 71.3863 24.7296 70.4959 23.8597C68.6151 22.0224 66.4821 20.3061 64.2607 18.8992C61.6846 17.2677 59.0053 15.7915 56.3573 14.2804L53.7218 12.9L53.7214 12.8997Z" fill="#303030"/>
<path d="M75.4323 15.8362C76.6508 15.251 77.1638 13.7894 76.5782 12.5718C75.9926 11.3541 74.5301 10.8414 73.3117 11.4267C72.0932 12.0119 71.5802 13.4734 72.1658 14.6911C72.7514 15.9088 74.2139 16.4215 75.4323 15.8362Z" fill="#303030"/>
<path fill-rule="evenodd" clip-rule="evenodd" d="M58.015 51.4555C60.4547 49.6338 64.4726 46.5503 67.0943 44.1857C71.091 40.581 76.0143 35.1092 79.1271 30.6846C79.9475 29.5185 80.6046 28.597 80.932 28.0609C81.2595 27.5249 81.0688 27.6951 81.0757 27.4939C81.0826 27.2928 81.0338 27.0457 80.9732 26.8788C80.9127 26.7119 81.1344 26.9637 80.7202 26.5166C80.306 26.0695 79.6584 25.208 78.4912 24.2005C77.324 23.1925 75.5038 21.7105 73.7328 20.4836C71.9617 19.2566 69.8312 18.0603 67.8804 16.8487L58.7464 11.4235C61.1712 12.5167 64.0919 13.8828 66.0208 14.7031C72.0704 17.2758 83.7736 21.2616 88.9105 16.2336C93.697 11.5485 94.7851 6.24534 95.98 -0.000488281C95.9297 5.57047 95.3696 8.95903 92.9171 13.9925C91.1982 17.5199 89.0575 20.4949 86.5999 23.558C85.3627 25.1002 84.0908 26.2499 83.537 26.8376C82.9831 27.4254 83.3353 26.9848 83.2773 27.0836C83.219 27.1824 83.1924 27.303 83.2022 27.4046C83.2121 27.5067 83.2259 27.5384 83.332 27.6575C83.4381 27.7763 83.6259 27.8977 83.8312 28.1083C84.0365 28.3193 84.2494 28.4228 84.5627 28.9213C84.8759 29.4198 85.4108 30.3373 85.6974 31.0804C85.984 31.8234 86.1233 32.5201 86.2717 33.3487C86.4201 34.1774 86.4927 34.6165 86.586 36.0406C86.943 41.4793 86.8438 45.0599 84.6717 50.1429C83.6318 52.576 78.7107 60.1176 76.0026 60.747C74.8678 61.0108 72.3953 60.1887 71.545 59.4624C70.842 58.8619 71.0571 57.1664 70.4784 56.5108C68.6629 54.4545 66.0584 55.3746 64.0244 55.8002C58.9652 56.8588 56.2687 57.0271 51.5781 56.5323C53.3495 53.6958 55.2263 53.5366 58.015 51.4547V51.4555Z" fill="#E5270E"/>
<path d="M82.2553 16.9677C83.6049 16.893 84.6384 15.7391 84.5637 14.3904C84.4889 13.0416 83.3343 12.0088 81.9847 12.0835C80.6351 12.1582 79.6016 13.3121 79.6764 14.6609C79.7511 16.0096 80.9058 17.0424 82.2553 16.9677Z" fill="#E5270E"/>
<path d="M86.2744 55.2692H84.4724V57.5417H86.1391V58.2337H84.4724V61.143H83.9316V54.5732H86.2744V55.2696V55.2692Z" fill="#E5270E"/>
<path d="M89.596 61.142H87.1504V54.5723H89.4931V55.2686H87.6911V57.454H89.3579V58.1459H87.6911V60.446H89.596V61.1424V61.142Z" fill="#E5270E"/>
<path d="M90.4824 61.1421V54.5723H91.7568C93.3827 54.5723 94.1958 55.6396 94.1958 57.7746C94.1958 58.7887 93.9701 59.6036 93.5183 60.219C93.0669 60.8345 92.4624 61.1421 91.705 61.1421H90.4824ZM91.0232 55.2686V60.4457H91.7116C92.3165 60.4457 92.7873 60.215 93.1242 59.7537C93.4611 59.2924 93.6296 58.639 93.6296 57.7928C93.6296 56.11 93.0009 55.2683 91.744 55.2683H91.0232V55.2686Z" fill="#E5270E"/>
<path d="M97.5491 61.142H95.1035V54.5723H97.4463V55.2686H95.6443V57.454H97.311V58.1459H95.6443V60.446H97.5491V61.1424V61.142Z" fill="#E5270E"/>
<path d="M101.746 61.1424H101.102L100.33 59.3007C100.259 59.1298 100.19 58.9837 100.124 58.8631C100.058 58.7425 99.9894 58.6441 99.9197 58.5676C99.8501 58.4914 99.775 58.4356 99.6944 58.4003C99.6138 58.3653 99.5234 58.3475 99.4224 58.3475H98.9783V61.142H98.4375V54.5723H99.8147C100.016 54.5723 100.202 54.6083 100.373 54.6798C100.544 54.7516 100.692 54.8609 100.817 55.0074C100.943 55.1539 101.041 55.3364 101.112 55.5547C101.182 55.773 101.218 56.0288 101.218 56.3221C101.218 56.5513 101.194 56.7612 101.145 56.9522C101.097 57.1431 101.028 57.3133 100.939 57.4631C100.85 57.6128 100.743 57.7404 100.618 57.8457C100.492 57.951 100.351 58.0326 100.194 58.0909V58.1091C100.272 58.158 100.339 58.2137 100.396 58.2764C100.452 58.3391 100.506 58.4131 100.558 58.4987C100.61 58.5843 100.661 58.6812 100.711 58.7895C100.761 58.8981 100.818 59.0238 100.88 59.1674L101.745 61.142L101.746 61.1424ZM98.9786 55.269V57.6515H99.7123C99.8475 57.6515 99.9722 57.6227 100.087 57.5644C100.202 57.5064 100.301 57.423 100.385 57.3147C100.468 57.2065 100.534 57.0735 100.581 56.9161C100.628 56.7587 100.652 56.5823 100.652 56.387C100.652 56.0357 100.572 55.7617 100.412 55.5645C100.252 55.3674 100.021 55.269 99.7181 55.269H98.9779H98.9786Z" fill="#E5270E"/>
<path d="M105.951 61.143H105.353L104.864 59.3013H102.908L102.447 61.143H101.846L103.616 54.5732H104.176L105.952 61.143H105.951ZM104.687 58.6093L103.963 55.81C103.939 55.7186 103.916 55.5717 103.892 55.3702H103.879C103.858 55.5564 103.833 55.7033 103.805 55.81L103.088 58.6093H104.687Z" fill="#E5270E"/>
<path d="M108.886 55.2696H107.553V61.143H107.013V55.2696H105.684V54.5732H108.885V55.2696H108.886Z" fill="#E5270E"/>
<path d="M110.15 61.1421H109.609V54.5723H110.15V61.1421Z" fill="#E5270E"/>
<path d="M113.223 61.2528C112.569 61.2528 112.045 60.9459 111.651 60.3319C111.257 59.7179 111.061 58.9191 111.061 57.9356C111.061 56.8789 111.261 56.036 111.662 55.4067C112.063 54.7774 112.609 54.4629 113.3 54.4629C113.937 54.4629 114.451 54.7683 114.84 55.3794C115.229 55.9905 115.424 56.7889 115.424 57.7757C115.424 58.8477 115.225 59.6953 114.826 60.3184C114.427 60.9416 113.893 61.2531 113.223 61.2531L113.223 61.2528ZM113.261 55.1593C112.776 55.1593 112.383 55.4081 112.08 55.9059C111.778 56.4037 111.627 57.0574 111.627 57.8668C111.627 58.6761 111.774 59.3276 112.069 59.8207C112.364 60.3141 112.748 60.5604 113.223 60.5604C113.729 60.5604 114.128 60.3254 114.42 59.8549C114.712 59.3845 114.857 58.7264 114.857 57.8802C114.857 57.0341 114.716 56.3425 114.433 55.8688C114.149 55.3954 113.759 55.1585 113.261 55.1585V55.1593Z" fill="#E5270E"/>
<path d="M120.052 61.1428H119.389L117.014 55.906C116.954 55.7748 116.905 55.637 116.866 55.4935H116.847C116.864 55.6341 116.873 55.9348 116.873 56.3961V61.1424H116.332V54.5726H117.034L119.344 59.7267C119.441 59.9406 119.502 60.0871 119.531 60.1665H119.543C119.522 59.9771 119.511 59.6549 119.511 59.1998V54.5723H120.052V61.1421V61.1428Z" fill="#E5270E"/>
<path d="M95.2324 49.8899V36.9336H97.7455C100.952 36.9336 102.556 39.0387 102.556 43.249C102.556 45.2489 102.11 46.8555 101.22 48.0693C100.33 49.2831 99.1376 49.8899 97.6441 49.8899H95.2328H95.2324ZM96.2986 38.3067V48.5164H97.6565C98.8496 48.5164 99.7779 48.0617 100.442 47.1521C101.106 46.2426 101.438 44.9537 101.438 43.2851C101.438 39.9661 100.199 38.3067 97.7199 38.3067H96.2986Z" fill="#303030"/>
<path d="M108.856 49.8901H107.816V48.4445H107.79C107.337 49.553 106.671 50.1069 105.791 50.1069C105.144 50.1069 104.637 49.8631 104.271 49.3752C103.905 48.8873 103.723 48.2397 103.723 47.4326C103.723 45.7039 104.438 44.6981 105.867 44.415L107.816 44.0265C107.816 42.4545 107.369 41.6685 106.477 41.6685C105.694 41.6685 104.988 42.0478 104.357 42.8069V41.2892C104.996 40.7108 105.732 40.4219 106.565 40.4219C108.092 40.4219 108.856 41.5723 108.856 43.8731V49.8905V49.8901ZM107.816 45.2097L106.248 45.5169C105.766 45.6135 105.402 45.7833 105.157 46.0275C104.911 46.2712 104.789 46.7038 104.789 47.324C104.789 47.7758 104.902 48.1446 105.128 48.4307C105.355 48.7167 105.656 48.8599 106.033 48.8599C106.549 48.8599 106.975 48.6023 107.311 48.0874C107.648 47.5725 107.816 46.9206 107.816 46.1313V45.2097H107.816Z" fill="#303030"/>
<path d="M116.212 49.8889H115.172V44.6124C115.172 42.6486 114.668 41.6669 113.661 41.6669C113.141 41.6669 112.71 41.9457 112.37 42.5028C112.029 43.06 111.859 43.7633 111.859 44.6124V49.8889H110.818V40.6367H111.859V42.1727H111.885C112.375 41.0041 113.086 40.4199 114.017 40.4199C114.727 40.4199 115.271 40.7468 115.648 41.4002C116.024 42.0539 116.212 42.9981 116.212 44.2326V49.8885V49.8889Z" fill="#303030"/>
<path d="M122.602 49.4643C122.103 49.8918 121.511 50.1057 120.825 50.1057C119.899 50.1057 119.151 49.6764 118.582 48.8183C118.013 47.9601 117.729 46.8472 117.729 45.4796C117.729 43.9557 118.035 42.7317 118.648 41.8068C119.262 40.8823 120.08 40.4199 121.104 40.4199C121.675 40.4199 122.179 40.5704 122.615 40.8718V42.3899C122.132 41.9081 121.616 41.6669 121.066 41.6669C120.402 41.6669 119.858 42.0058 119.432 42.6832C119.007 43.361 118.795 44.2509 118.795 45.3532C118.795 46.4555 118.995 47.2929 119.395 47.9193C119.794 48.5457 120.331 48.8591 121.003 48.8591C121.57 48.8591 122.103 48.5912 122.603 48.0548V49.4643H122.602Z" fill="#303030"/>
<path d="M129.397 45.6334H124.809C124.826 46.6636 125.021 47.4583 125.393 48.0188C125.765 48.5789 126.277 48.8591 126.929 48.8591C127.66 48.8591 128.333 48.5158 128.947 47.8289V49.2202C128.375 49.8105 127.62 50.1057 126.681 50.1057C125.742 50.1057 125.042 49.6855 124.517 48.8452C123.993 48.0049 123.73 46.8228 123.73 45.2989C123.73 43.8595 124.017 42.6865 124.59 41.7799C125.163 40.8732 125.875 40.4199 126.726 40.4199C127.576 40.4199 128.234 40.8117 128.699 41.5944C129.164 42.3775 129.397 43.4645 129.397 44.8561V45.633L129.397 45.6334ZM128.331 44.3777C128.327 43.5224 128.182 42.8567 127.896 42.3808C127.611 41.9049 127.214 41.6669 126.707 41.6669C126.199 41.6669 125.799 41.9169 125.457 42.4168C125.114 42.9168 124.902 43.5705 124.822 44.3773H128.331L128.331 44.3777Z" fill="#303030"/>
<path d="M130.686 49.3655V47.5767C130.829 47.7574 131.002 47.9199 131.203 48.0646C131.404 48.2093 131.615 48.331 131.837 48.4305C132.059 48.5299 132.282 48.6065 132.507 48.6608C132.731 48.7151 132.938 48.742 133.129 48.742C133.784 48.742 134.274 48.5689 134.598 48.2224C134.921 47.8762 135.083 47.3777 135.083 46.7273C135.083 46.3782 135.029 46.0739 134.921 45.8148C134.813 45.5557 134.664 45.3196 134.474 45.1057C134.283 44.8918 134.058 44.687 133.798 44.4913C133.538 44.2956 133.258 44.0894 132.957 43.8725C132.64 43.6437 132.344 43.4116 132.069 43.1769C131.794 42.9419 131.555 42.6831 131.352 42.4C131.149 42.1169 130.989 41.7962 130.873 41.4376C130.756 41.0794 130.698 40.6593 130.698 40.1772C130.698 39.5868 130.789 39.0734 130.971 38.6368C131.153 38.2003 131.391 37.8402 131.688 37.5571C131.984 37.274 132.321 37.0633 132.7 36.9245C133.079 36.786 133.465 36.7168 133.858 36.7168C134.755 36.7168 135.409 36.8702 135.819 37.1778V38.8853C135.282 38.3555 134.592 38.0902 133.75 38.0902C133.518 38.0902 133.285 38.1248 133.052 38.1941C132.82 38.2633 132.612 38.3763 132.431 38.533C132.249 38.6897 132.101 38.8915 131.987 39.1382C131.872 39.3853 131.815 39.6863 131.815 40.0416C131.815 40.3728 131.859 40.6593 131.945 40.8998C132.032 41.1406 132.16 41.3607 132.329 41.5593C132.498 41.7583 132.705 41.9511 132.948 42.1376C133.191 42.3242 133.472 42.5294 133.789 42.752C134.115 42.9808 134.423 43.2217 134.715 43.4746C135.008 43.7275 135.263 44.0077 135.483 44.3149C135.703 44.6221 135.878 44.9625 136.007 45.336C136.136 45.7095 136.201 46.1373 136.201 46.619C136.201 47.2575 136.113 47.7982 135.937 48.241C135.762 48.6837 135.525 49.0437 135.227 49.3207C134.928 49.5976 134.585 49.7981 134.195 49.9216C133.806 50.0451 133.396 50.1067 132.964 50.1067C132.82 50.1067 132.643 50.0899 132.431 50.0571C132.22 50.024 132.004 49.9759 131.784 49.9125C131.564 49.8491 131.356 49.7711 131.159 49.6774C130.962 49.5842 130.805 49.4803 130.686 49.3659L130.686 49.3655Z" fill="#303030"/>
<path d="M138.943 48.5515H138.918V54.1444H137.877V40.6367H138.918V42.2631H138.943C139.455 41.0343 140.204 40.4199 141.19 40.4199C142.027 40.4199 142.681 40.8342 143.151 41.6622C143.62 42.4904 143.855 43.6 143.855 44.9917C143.855 46.5397 143.591 47.779 143.062 48.7097C142.533 49.6404 141.81 50.1057 140.892 50.1057C140.05 50.1057 139.4 49.5879 138.943 48.5515H138.943ZM138.918 44.8201V46.1122C138.918 46.8771 139.092 47.5261 139.441 48.0592C139.79 48.5923 140.233 48.8587 140.771 48.8587C141.401 48.8587 141.895 48.5155 142.253 47.8286C142.61 47.142 142.789 46.1873 142.789 44.9644C142.789 43.9342 142.622 43.1274 142.288 42.5429C141.953 41.9588 141.501 41.6665 140.93 41.6665C140.325 41.6665 139.838 41.9661 139.47 42.5655C139.102 43.165 138.918 43.9163 138.918 44.8197L138.918 44.8201Z" fill="#303030"/>
<path d="M148.233 50.1063C147.272 50.1063 146.505 49.6741 145.932 48.8098C145.359 47.9454 145.072 46.7994 145.072 45.372C145.072 43.8178 145.371 42.6044 145.967 41.7309C146.564 40.8578 147.369 40.4209 148.385 40.4209C149.4 40.4209 150.11 40.8454 150.654 41.6948C151.197 42.5443 151.469 43.7216 151.469 45.2277C151.469 46.7338 151.176 47.8856 150.59 48.7741C150.004 49.6625 149.218 50.1067 148.233 50.1067L148.233 50.1063ZM148.309 41.6675C147.64 41.6675 147.112 41.9915 146.722 42.6386C146.333 43.2862 146.138 44.179 146.138 45.3177C146.138 46.4565 146.335 47.2782 146.729 47.9108C147.122 48.5434 147.649 48.8593 148.309 48.8593C148.969 48.8593 149.499 48.5492 149.86 47.9286C150.222 47.3084 150.403 46.4259 150.403 45.2813C150.403 44.1367 150.222 43.2333 149.86 42.6069C149.499 41.9805 148.981 41.6671 148.309 41.6671V41.6675Z" fill="#303030"/>
<path d="M156.519 42.1366C156.337 41.9377 156.075 41.8386 155.733 41.8386C155.288 41.8386 154.917 42.1366 154.619 42.7332C154.321 43.3297 154.172 44.1427 154.172 45.1728V49.8893H153.131V40.6371H154.172V42.5437H154.197C154.345 41.8932 154.572 41.3856 154.876 41.0212C155.18 40.6568 155.521 40.4746 155.898 40.4746C156.168 40.4746 156.376 40.5169 156.519 40.6011V42.137V42.1366Z" fill="#303030"/>
<path d="M160.664 49.7995C160.418 49.9923 160.095 50.0885 159.693 50.0885C158.555 50.0885 157.986 49.1852 157.986 47.3781V41.903H156.869V40.6381H157.986V38.3792L159.027 37.9004V40.6381H160.664V41.903H159.027V47.1161C159.027 47.7367 159.101 48.1794 159.249 48.4443C159.397 48.7096 159.642 48.8419 159.985 48.8419C160.247 48.8419 160.474 48.7395 160.664 48.5347V49.7995Z" fill="#303030"/>
<path d="M105.94 31.811C105.94 33.656 105.355 34.5783 104.186 34.5783C103.016 34.5783 102.506 33.691 102.506 31.9163V27.8984H103.047V31.866C103.047 33.2129 103.446 33.8866 104.244 33.8866C105.042 33.8866 105.399 33.2362 105.399 31.9349V27.8984H105.94V31.811Z" fill="#E5270E"/>
<path d="M110.102 28.0817L107.399 33.7722H110.038V34.4686H106.592V34.2532L109.272 28.5948H106.807V27.8984H110.102V28.0817Z" fill="#E5270E"/>
<path d="M110.85 34.4686V27.8984H112.163C112.562 27.8984 112.878 28.0376 113.112 28.3153C113.346 28.5934 113.463 28.9552 113.463 29.4012C113.463 29.774 113.392 30.0976 113.25 30.3724C113.109 30.6471 112.913 30.8428 112.665 30.9587V30.9769C112.976 31.029 113.225 31.1963 113.411 31.4787C113.598 31.7611 113.691 32.1284 113.691 32.5806C113.691 33.1425 113.55 33.5977 113.266 33.946C112.983 34.2944 112.626 34.4682 112.195 34.4682H110.85V34.4686ZM111.39 28.5952V30.7163H111.944C112.24 30.7163 112.473 30.6147 112.642 30.4117C112.812 30.2087 112.896 29.9223 112.896 29.5528C112.896 28.9144 112.601 28.5952 112.011 28.5952H111.39ZM111.39 31.4083V33.7726H112.124C112.442 33.7726 112.688 33.6658 112.862 33.4519C113.037 33.238 113.125 32.945 113.125 32.5722C113.125 31.7964 112.753 31.4083 112.011 31.4083H111.39Z" fill="#E5270E"/>
<path d="M117.073 34.4686H114.627V27.8984H116.97V28.5948H115.168V30.7801H116.834V31.4721H115.168V33.7722H117.073V34.4686Z" fill="#E5270E"/>
<path d="M121.172 34.4689H120.419L118.637 31.4634C118.57 31.3504 118.529 31.2739 118.514 31.2342H118.502V34.4686H117.961V27.8984H118.502V30.9864H118.514C118.544 30.9193 118.585 30.8443 118.637 30.7619L120.361 27.8984H121.034L119.055 31.0505L121.172 34.4682V34.4689Z" fill="#E5270E"/>
<path d="M122.324 34.4686H121.783V27.8984H122.324V34.4686Z" fill="#E5270E"/>
<path d="M123.322 34.2029V33.2959C123.395 33.3874 123.483 33.4701 123.584 33.5433C123.686 33.6166 123.794 33.6785 123.906 33.7288C124.019 33.7791 124.132 33.8181 124.246 33.8458C124.36 33.8731 124.465 33.8869 124.561 33.8869C124.894 33.8869 125.142 33.7991 125.306 33.6235C125.47 33.4478 125.552 33.1949 125.552 32.8652C125.552 32.6881 125.525 32.5339 125.47 32.4024C125.416 32.2712 125.34 32.1513 125.244 32.0427C125.147 31.9345 125.033 31.8303 124.901 31.7312C124.769 31.632 124.627 31.5274 124.474 31.4174C124.314 31.3015 124.163 31.1838 124.024 31.0647C123.884 30.9455 123.763 30.8143 123.66 30.6707C123.557 30.5272 123.476 30.3646 123.417 30.1828C123.358 30.001 123.329 29.7882 123.329 29.5437C123.329 29.2445 123.375 28.9839 123.467 28.7624C123.559 28.5408 123.68 28.3586 123.831 28.215C123.981 28.0715 124.152 27.9647 124.344 27.8944C124.536 27.824 124.732 27.7891 124.931 27.7891C125.386 27.7891 125.718 27.867 125.926 28.0226V28.8885C125.653 28.6195 125.304 28.4854 124.877 28.4854C124.759 28.4854 124.641 28.5029 124.523 28.5383C124.404 28.5733 124.299 28.6308 124.207 28.7099C124.115 28.7893 124.04 28.8917 123.982 29.0167C123.924 29.1421 123.895 29.2948 123.895 29.4748C123.895 29.6428 123.917 29.7878 123.961 29.9099C124.005 30.0319 124.07 30.1435 124.156 30.2444C124.241 30.3453 124.346 30.443 124.469 30.5377C124.593 30.6325 124.735 30.7363 124.896 30.8493C125.061 30.9655 125.218 31.0876 125.365 31.2159C125.513 31.3442 125.643 31.4863 125.755 31.6419C125.866 31.7975 125.955 31.9702 126.02 32.1597C126.085 32.3492 126.118 32.566 126.118 32.8101C126.118 33.1341 126.074 33.4081 125.985 33.6326C125.896 33.8571 125.776 34.0396 125.625 34.1799C125.473 34.3206 125.299 34.4219 125.102 34.4846C124.904 34.5472 124.696 34.5786 124.477 34.5786C124.404 34.5786 124.314 34.5702 124.207 34.5534C124.1 34.5367 123.991 34.5123 123.879 34.4802C123.767 34.4481 123.662 34.4084 123.562 34.361C123.462 34.3137 123.382 34.2612 123.322 34.2029Z" fill="#E5270E"/>
<path d="M129.767 28.5948H128.434V34.4682H127.894V28.5948H126.564V27.8984H129.766V28.5948H129.767Z" fill="#E5270E"/>
<path d="M133.614 34.4686H133.015L132.526 32.6269H130.57L130.109 34.4686H129.508L131.278 27.8984H131.838L133.614 34.4686H133.614ZM132.349 31.9349L131.625 29.1356C131.601 29.0441 131.578 28.8973 131.554 28.6957H131.541C131.52 28.882 131.495 29.0288 131.467 29.1356L130.75 31.9349H132.349Z" fill="#E5270E"/>
<path d="M138.011 34.4689H137.348L134.973 29.2321C134.913 29.101 134.864 28.9632 134.825 28.8196H134.806C134.823 28.9603 134.832 29.2609 134.832 29.7223V34.4686H134.291V27.8984H134.993L137.303 33.0529C137.4 33.2668 137.461 33.4133 137.49 33.4927H137.502C137.481 33.3032 137.47 32.9811 137.47 32.526V27.8984H138.011V34.4686V34.4689Z" fill="#E5270E"/>
<path d="M7.71539 34.8036H6.44611L4.92304 31.1716C4.78339 30.8341 4.64811 30.5466 4.51684 30.3087C4.38558 30.0707 4.25139 29.8765 4.11393 29.726C3.97646 29.5755 3.82842 29.4655 3.6698 29.3962C3.51119 29.327 3.33252 29.2924 3.13343 29.2924H2.25759V34.8039H1.19141V21.8477H3.90791C4.30536 21.8477 4.67254 21.9184 5.00873 22.0601C5.34492 22.2019 5.63699 22.4169 5.88457 22.7062C6.13216 22.9955 6.32578 23.3552 6.46507 23.7859C6.60472 24.2166 6.67437 24.721 6.67437 25.2993C6.67437 25.7511 6.6266 26.1651 6.53143 26.5415C6.43626 26.9179 6.30098 27.2539 6.12523 27.5491C5.94948 27.8442 5.73799 28.0957 5.49077 28.3034C5.24319 28.5111 4.96497 28.6725 4.6565 28.7866V28.8227C4.80891 28.9192 4.94091 29.0289 5.05322 29.1524C5.16516 29.276 5.27199 29.4221 5.37373 29.5908C5.47546 29.7595 5.57573 29.9508 5.67528 30.1644C5.77446 30.3783 5.88567 30.6268 6.00855 30.9099L7.71539 34.8039V34.8036ZM2.25832 23.2207V27.9189H3.70517C3.97172 27.9189 4.21821 27.8617 4.44465 27.7473C4.67108 27.6329 4.86652 27.4689 5.0317 27.255C5.19652 27.0411 5.3256 26.7791 5.41894 26.469C5.51192 26.1589 5.55859 25.8109 5.55859 25.4253C5.55859 24.7326 5.40107 24.1922 5.08603 23.8034C4.77099 23.4149 4.31484 23.2207 3.71867 23.2207H2.25832Z" fill="#E5270E"/>
<path d="M13.4774 34.8042H12.4367V33.3586H12.4112C11.9583 34.4671 11.2922 35.021 10.4123 35.021C9.76508 35.021 9.25824 34.7772 8.89252 34.2893C8.52643 33.8013 8.34375 33.1538 8.34375 32.3466C8.34375 30.6179 9.05879 29.6122 10.4885 29.329L12.4367 28.9406C12.4367 27.3686 11.9904 26.5826 11.0978 26.5826C10.3149 26.5826 9.60866 26.9619 8.97821 27.7209V26.2032C9.61704 25.6249 10.3532 25.3359 11.1864 25.3359C12.7135 25.3359 13.4774 26.4863 13.4774 28.7872V34.8045V34.8042ZM12.4367 30.1238L10.8692 30.431C10.3868 30.5276 10.0229 30.6974 9.77784 30.9415C9.53245 31.1853 9.40993 31.6178 9.40993 32.2381C9.40993 32.6899 9.52297 33.0587 9.7494 33.3447C9.97584 33.6308 10.277 33.774 10.6537 33.774C11.1696 33.774 11.5959 33.5164 11.9324 33.0015C12.269 32.4866 12.4371 31.8347 12.4371 31.0454V30.1238H12.4367Z" fill="#E5270E"/>
<path d="M20.9843 39.0594H19.9436V33.2137H19.9181C19.4652 34.4184 18.725 35.0207 17.6972 35.0207C16.8807 35.0207 16.2259 34.6068 15.7332 33.7785C15.2403 32.9502 14.9941 31.8224 14.9941 30.3947C14.9941 28.8587 15.2647 27.6314 15.8065 26.7128C16.348 25.7941 17.0758 25.335 17.9896 25.335C18.9034 25.335 19.521 25.8349 19.9188 26.8348H19.9444V25.5518H20.985V39.0594H20.9843ZM19.9436 30.6385V29.2924C19.9436 28.5333 19.769 27.892 19.42 27.368C19.0711 26.8439 18.6277 26.5819 18.0906 26.5819C17.4645 26.5819 16.9693 26.9117 16.6058 27.5713C16.2419 28.2309 16.06 29.1601 16.06 30.3586C16.06 31.4248 16.2353 32.2604 16.5868 32.8657C16.938 33.4709 17.3905 33.7738 17.9447 33.7738C18.554 33.7738 19.0394 33.4771 19.4011 32.8839C19.7628 32.2906 19.9436 31.5422 19.9436 30.6388V30.6385Z" fill="#E5270E"/>
<path d="M22.6984 34.4696V32.8794C23.2654 33.4756 23.8892 33.774 24.5704 33.774C25.4841 33.774 25.941 33.3404 25.941 32.4731C25.941 32.226 25.902 32.0169 25.8236 31.8452C25.7452 31.6736 25.6395 31.5216 25.5064 31.389C25.3733 31.2567 25.2165 31.1376 25.0367 31.0323C24.857 30.9269 24.6634 30.8169 24.4562 30.7025C24.1686 30.5399 23.9159 30.376 23.6978 30.2102C23.4798 30.0447 23.2982 29.8578 23.152 29.6501C23.0061 29.4424 22.896 29.2059 22.822 28.941C22.748 28.676 22.7108 28.3659 22.7108 28.0103C22.7108 27.5766 22.7804 27.1926 22.9201 26.8584C23.0597 26.5242 23.2457 26.244 23.4783 26.0181C23.7109 25.7922 23.9764 25.622 24.2747 25.5076C24.5729 25.3931 24.8807 25.3359 25.1979 25.3359C25.7605 25.3359 26.2641 25.4744 26.7082 25.7517V27.2516C26.2302 26.8059 25.6803 26.5829 25.0583 26.5829C24.8635 26.5829 24.6882 26.6146 24.5314 26.6777C24.3749 26.7411 24.2404 26.83 24.1284 26.944C24.0161 27.0585 23.9294 27.1955 23.8681 27.3551C23.8068 27.5147 23.7762 27.6911 23.7762 27.8835C23.7762 28.1243 23.8068 28.3262 23.8681 28.4887C23.9294 28.6513 24.0194 28.7959 24.1379 28.9224C24.2564 29.0488 24.4001 29.1632 24.5693 29.2656C24.7385 29.368 24.931 29.4795 25.1469 29.5998C25.4346 29.7565 25.6927 29.9175 25.921 30.0834C26.1496 30.2492 26.3439 30.4357 26.5047 30.6434C26.6655 30.8511 26.7892 31.0906 26.8759 31.3617C26.9627 31.6328 27.0061 31.9549 27.0061 32.3284C27.0061 32.7861 26.9354 33.1837 26.7935 33.5211C26.6517 33.8585 26.4624 34.1388 26.2254 34.3614C25.9884 34.5844 25.7157 34.7499 25.4068 34.8585C25.098 34.9671 24.7742 35.021 24.4358 35.021C23.7675 35.021 23.1877 34.8373 22.6973 34.47L22.6984 34.4696Z" fill="#E5270E"/>
<path d="M28.3203 34.2799V32.4911C28.464 32.6718 28.6364 32.8344 28.8374 32.979C29.0383 33.1237 29.2498 33.2454 29.4718 33.3449C29.6939 33.4444 29.917 33.5209 30.1413 33.5752C30.3655 33.6295 30.5726 33.6565 30.7633 33.6565C31.4189 33.6565 31.9086 33.4834 32.2324 33.1368C32.5562 32.7906 32.7178 32.2921 32.7178 31.6413C32.7178 31.2922 32.6638 30.9879 32.5559 30.7289C32.4479 30.4701 32.2988 30.2336 32.1085 30.0197C31.9181 29.8058 31.6928 29.601 31.4328 29.4054C31.1725 29.2097 30.8924 29.0034 30.592 28.7866C30.2747 28.5578 29.9787 28.3256 29.7037 28.091C29.4288 27.8559 29.1896 27.5972 28.9865 27.3141C28.7834 27.0309 28.6237 26.7102 28.5074 26.3517C28.3911 25.9935 28.3327 25.5733 28.3327 25.0912C28.3327 24.5009 28.4235 23.9874 28.6055 23.5509C28.7874 23.1143 29.0262 22.7543 29.3227 22.4712C29.6188 22.188 29.956 21.9774 30.3349 21.8386C30.7134 21.7001 31.0995 21.6309 31.493 21.6309C32.39 21.6309 33.0434 21.7843 33.454 22.0918V23.7994C32.9165 23.2696 32.227 23.0043 31.385 23.0043C31.1524 23.0043 30.9198 23.0389 30.6871 23.1081C30.4545 23.1774 30.247 23.2903 30.0654 23.447C29.8835 23.6037 29.7354 23.8056 29.6213 24.0523C29.5072 24.2994 29.4499 24.6004 29.4499 24.9557C29.4499 25.2869 29.4933 25.5733 29.5801 25.8138C29.6669 26.0547 29.7949 26.2748 29.9641 26.4734C30.1333 26.672 30.3396 26.8651 30.5828 27.0517C30.8261 27.2383 31.1065 27.4434 31.4237 27.6661C31.7493 27.8949 32.0581 28.1358 32.3502 28.389C32.6423 28.6419 32.8979 28.9222 33.1181 29.2293C33.338 29.5365 33.5127 29.8769 33.6417 30.2504C33.7708 30.6239 33.8354 31.0517 33.8354 31.5335C33.8354 32.1719 33.7475 32.7127 33.5721 33.1554C33.3963 33.5981 33.1597 33.9582 32.8614 34.2351C32.5632 34.5121 32.2193 34.7125 31.8303 34.836C31.4408 34.9595 31.0306 35.0211 30.5993 35.0211C30.4552 35.0211 30.2777 35.0044 30.0662 34.9716C29.8547 34.9384 29.6388 34.8903 29.4189 34.8269C29.1991 34.7635 28.9905 34.6855 28.794 34.5919C28.5971 34.4986 28.4395 34.3947 28.321 34.2803L28.3203 34.2799Z" fill="#E5270E"/>
<path d="M36.5759 33.4666H36.5504V39.0594H35.5098V25.5518H36.5504V27.1781H36.5759C37.0879 25.9493 37.8365 25.335 38.8224 25.335C39.66 25.335 40.3138 25.7493 40.7834 26.5772C41.2531 27.4055 41.4879 28.5151 41.4879 29.9067C41.4879 31.4547 41.2235 32.694 40.6948 33.6247C40.1661 34.5554 39.4427 35.0207 38.5245 35.0207C37.6826 35.0207 37.0332 34.5029 36.5763 33.4666H36.5759ZM36.5504 29.7351V31.0273C36.5504 31.7921 36.7251 32.4411 37.074 32.9743C37.423 33.5074 37.866 33.7738 38.4035 33.7738C39.0339 33.7738 39.5276 33.4305 39.8853 32.7436C40.2427 32.0571 40.4217 31.1023 40.4217 29.8794C40.4217 28.8492 40.2547 28.0425 39.9203 27.458C39.586 26.8738 39.1335 26.5816 38.5625 26.5816C37.9575 26.5816 37.4711 26.8815 37.1028 27.4806C36.7349 28.08 36.5508 28.8314 36.5508 29.7347L36.5504 29.7351Z" fill="#E5270E"/>
<path d="M45.8673 35.0204C44.9069 35.0204 44.14 34.5882 43.5668 33.7238C42.9936 32.8595 42.707 31.7134 42.707 30.2861C42.707 28.7319 43.0053 27.5185 43.6018 26.645C44.1984 25.7715 45.0042 25.335 46.0197 25.335C47.0352 25.335 47.7448 25.7595 48.2884 26.6089C48.8321 27.4583 49.1038 28.6357 49.1038 30.1418C49.1038 31.6478 48.8106 32.7997 48.225 33.6881C47.639 34.5765 46.8533 35.0207 45.8677 35.0207L45.8673 35.0204ZM45.9435 26.5816C45.2751 26.5816 44.7464 26.9055 44.357 27.5527C43.9676 28.2002 43.7732 29.093 43.7732 30.2318C43.7732 31.3705 43.9701 32.1923 44.3636 32.8249C44.757 33.4575 45.2835 33.7734 45.9435 33.7734C46.6035 33.7734 47.1333 33.4633 47.495 32.8427C47.8567 32.2225 48.0376 31.3399 48.0376 30.1953C48.0376 29.0508 47.8567 28.1474 47.495 27.521C47.1333 26.8946 46.6162 26.5812 45.9435 26.5812V26.5816Z" fill="#E5270E"/>
<path d="M54.1541 27.0511C53.9722 26.8521 53.71 26.753 53.3673 26.753C52.9231 26.753 52.552 27.0511 52.2537 27.6476C51.9554 28.2441 51.8063 29.0571 51.8063 30.0869V34.8033H50.7656V25.5512H51.8063V27.4577H51.8318C51.9798 26.8073 52.2063 26.2997 52.5107 25.9353C52.8152 25.5709 53.1558 25.3887 53.5324 25.3887C53.803 25.3887 54.0105 25.4309 54.1541 25.5151V27.0511Z" fill="#E5270E"/>
<path d="M58.2986 34.7136C58.0532 34.9064 57.7294 35.0026 57.3276 35.0026C56.1896 35.0026 55.6208 34.0992 55.6208 32.2922V26.817H54.5039V25.5522H55.6208V23.2933L56.6614 22.8145V25.5522H58.2986V26.817H56.6614V32.0301C56.6614 32.6507 56.7354 33.0935 56.8835 33.3584C57.0315 33.6237 57.2769 33.756 57.6197 33.756C57.8818 33.756 58.1083 33.6536 58.2986 33.4488V34.7136Z" fill="#E5270E"/>
<path d="M60.2196 23.2027C60.0333 23.2027 59.8747 23.1123 59.7438 22.9316C59.6125 22.7509 59.5469 22.522 59.5469 22.2451C59.5469 21.9681 59.6125 21.7378 59.7438 21.5538C59.8747 21.3701 60.0337 21.2783 60.2196 21.2783C60.4056 21.2783 60.5719 21.3701 60.7049 21.5538C60.8384 21.7375 60.9048 21.9681 60.9048 22.2451C60.9048 22.522 60.838 22.7359 60.7049 22.9229C60.5719 23.1098 60.41 23.2031 60.2196 23.2031V23.2027ZM60.7272 34.8038H59.6865V25.5517H60.7272V34.8038Z" fill="#E5270E"/>
<path d="M15.5255 19.3748C14.8714 19.3748 14.3474 19.068 13.9536 18.454C13.5598 17.84 13.3633 17.0412 13.3633 16.0577C13.3633 15.0009 13.5638 14.1581 13.9649 13.5288C14.366 12.8994 14.9119 12.585 15.6028 12.585C16.2399 12.585 16.7533 12.8903 17.1427 13.5014C17.5321 14.1125 17.7268 14.9109 17.7268 15.8977C17.7268 16.9698 17.5274 17.8174 17.1285 18.4405C16.7296 19.0636 16.1954 19.3752 15.5259 19.3752L15.5255 19.3748ZM15.5642 13.2813C15.0792 13.2813 14.6858 13.5302 14.3832 14.028C14.0805 14.5258 13.9296 15.1795 13.9296 15.9888C13.9296 16.7982 14.0769 17.4497 14.3719 17.9427C14.6668 18.4361 15.0512 18.6828 15.5255 18.6828C16.0317 18.6828 16.4309 18.4478 16.7226 17.9774C17.0143 17.5069 17.1602 16.8488 17.1602 16.0027C17.1602 15.1565 17.0187 14.4649 16.7354 13.9915C16.4521 13.5182 16.0619 13.2813 15.5642 13.2813Z" fill="#303030"/>
<path d="M19.2127 12.585L18.7624 14.6282H18.3828L18.7402 12.585H19.2131H19.2127Z" fill="#303030"/>
<path d="M23.1552 12.8786L20.4522 18.5691H23.0907V19.2655H19.6445V19.0501L22.3249 13.3917H19.86V12.6953H23.1552V12.8786Z" fill="#303030"/>
<path d="M23.9023 19.2655V12.6953H25.2154C25.6143 12.6953 25.9308 12.8345 26.1645 13.1122C26.3982 13.3902 26.5153 13.7521 26.5153 14.1981C26.5153 14.5709 26.4446 14.8945 26.3031 15.1692C26.1616 15.444 25.9662 15.6397 25.7175 15.7556V15.7738C26.0285 15.8259 26.2776 15.9931 26.4639 16.2756C26.6506 16.558 26.7439 16.9253 26.7439 17.3775C26.7439 17.9394 26.6024 18.3945 26.3191 18.7429C26.0358 19.0913 25.6788 19.2651 25.2475 19.2651H23.9023V19.2655ZM24.4431 13.392V15.5132H24.9966C25.2927 15.5132 25.5253 15.4116 25.6949 15.2086C25.8644 15.0056 25.949 14.7192 25.949 14.3497C25.949 13.7113 25.654 13.392 25.0641 13.392H24.4431ZM24.4431 16.2052V18.5695H25.1767C25.4943 18.5695 25.7405 18.4627 25.9151 18.2488C26.0898 18.0349 26.1773 17.7419 26.1773 17.3691C26.1773 16.5933 25.8061 16.2052 25.0641 16.2052H24.4431Z" fill="#303030"/>
<path d="M30.1253 19.2655H27.6797V12.6953H30.0224V13.3917H28.2204V15.577H29.8872V16.269H28.2204V18.5691H30.1253V19.2655Z" fill="#303030"/>
<path d="M34.225 19.2658H33.472L31.6893 16.2602C31.623 16.1473 31.5821 16.0708 31.5672 16.031H31.5544V19.2655H31.0137V12.6953H31.5544V15.7832H31.5672C31.5971 15.7162 31.6379 15.6411 31.6893 15.5588L33.414 12.6953H34.0864L32.1076 15.8474L34.225 19.2651V19.2658Z" fill="#303030"/>
<path d="M35.3767 19.2655H34.8359V12.6953H35.3767V19.2655Z" fill="#303030"/>
<path d="M36.373 18.9998V18.0928C36.446 18.1842 36.5335 18.2669 36.6352 18.3402C36.7369 18.4134 36.8445 18.4754 36.9572 18.5257C37.0699 18.576 37.1829 18.6149 37.2967 18.6426C37.4104 18.67 37.5154 18.6838 37.6121 18.6838C37.9446 18.6838 38.1929 18.596 38.357 18.4204C38.5211 18.2447 38.6031 17.9918 38.6031 17.662C38.6031 17.4849 38.5758 17.3308 38.5211 17.1993C38.4664 17.0681 38.3909 16.9482 38.2943 16.8396C38.1977 16.7314 38.0835 16.6271 37.9515 16.528C37.8195 16.4289 37.6773 16.3243 37.5253 16.2143C37.3645 16.0984 37.2143 15.9807 37.0746 15.8615C36.9349 15.7424 36.8139 15.6112 36.7111 15.4676C36.6082 15.324 36.5273 15.1615 36.4682 14.9797C36.4091 14.7979 36.3796 14.585 36.3796 14.3405C36.3796 14.0414 36.4256 13.7808 36.5178 13.5593C36.6101 13.3377 36.7311 13.1555 36.8813 13.0119C37.0316 12.8683 37.2026 12.7616 37.3947 12.6912C37.5865 12.6209 37.7823 12.5859 37.9822 12.5859C38.4369 12.5859 38.7683 12.6639 38.9765 12.8195V13.6853C38.7041 13.4164 38.3545 13.2823 37.9275 13.2823C37.8093 13.2823 37.6916 13.2998 37.5734 13.3351C37.4553 13.3701 37.3503 13.4277 37.258 13.5068C37.1658 13.5862 37.0906 13.6886 37.0327 13.8136C36.9747 13.939 36.9459 14.0916 36.9459 14.2717C36.9459 14.4396 36.9678 14.5847 37.0119 14.7068C37.056 14.8288 37.1209 14.9403 37.2066 15.0413C37.2923 15.1422 37.3969 15.2399 37.5202 15.3346C37.6434 15.4294 37.7856 15.5332 37.9464 15.6462C38.1116 15.7624 38.2684 15.8845 38.4161 16.0128C38.5641 16.141 38.6939 16.2831 38.8055 16.4387C38.9171 16.5943 39.0057 16.7671 39.071 16.9566C39.1362 17.146 39.169 17.3629 39.169 17.607C39.169 17.931 39.1246 18.205 39.0356 18.4295C38.9466 18.6539 38.8263 18.8365 38.6753 18.9768C38.524 19.1175 38.3497 19.2188 38.1524 19.2814C37.9552 19.3441 37.747 19.3755 37.5282 19.3755C37.4553 19.3755 37.3652 19.3671 37.258 19.3503C37.1508 19.3335 37.0414 19.3091 36.9298 19.2771C36.8183 19.245 36.7125 19.2053 36.613 19.1579C36.5131 19.1105 36.4332 19.0581 36.373 18.9998Z" fill="#303030"/>
<path d="M42.8194 13.3917H41.487V19.2651H40.9463V13.3917H39.6172V12.6953H42.819V13.3917H42.8194Z" fill="#303030"/>
<path d="M45.0978 19.3748C44.4437 19.3748 43.9197 19.068 43.5259 18.454C43.1321 17.84 42.9355 17.0412 42.9355 16.0577C42.9355 15.0009 43.1361 14.1581 43.5372 13.5288C43.9383 12.8994 44.4841 12.585 45.1751 12.585C45.8121 12.585 46.3255 12.8903 46.715 13.5014C47.1044 14.1125 47.2991 14.9109 47.2991 15.8977C47.2991 16.9698 47.0996 17.8174 46.7007 18.4405C46.3018 19.0636 45.7676 19.3752 45.0982 19.3752L45.0978 19.3748ZM45.1365 13.2813C44.6515 13.2813 44.2581 13.5302 43.9554 14.028C43.6528 14.5258 43.5018 15.1795 43.5018 15.9888C43.5018 16.7982 43.6491 17.4497 43.9441 17.9427C44.2391 18.4361 44.6234 18.6828 45.0978 18.6828C45.6039 18.6828 46.0032 18.4478 46.2949 17.9774C46.5866 17.5069 46.7325 16.8488 46.7325 16.0027C46.7325 15.1565 46.591 14.4649 46.3077 13.9915C46.0243 13.5182 45.6342 13.2813 45.1365 13.2813Z" fill="#303030"/>
<path d="M51.925 19.2658H51.2621L48.8873 14.029C48.8271 13.8978 48.7779 13.7601 48.7393 13.6165H48.7199C48.7371 13.7572 48.7458 14.0578 48.7458 14.5191V19.2655H48.2051V12.6953H48.9066L51.2169 17.8498C51.3136 18.0637 51.3755 18.2102 51.4036 18.2896H51.4164C51.3949 18.1001 51.3843 17.778 51.3843 17.3228V12.6953H51.925V19.2655V19.2658Z" fill="#303030"/>
<path d="M3.20994 39.9567H1.40794V42.2292H3.07467V42.9211H1.40794V45.8305H0.867188V39.2607H3.20994V39.9571V39.9567Z" fill="#303030"/>
<path d="M6.53152 45.8296H4.08594V39.2598H6.42869V39.9561H4.62669V42.1414H6.29342V42.8334H4.62669V45.1335H6.53152V45.8299V45.8296Z" fill="#303030"/>
<path d="M7.41797 45.8296V39.2598H8.69235C10.3182 39.2598 11.1314 40.3271 11.1314 42.4621C11.1314 43.4762 10.9057 44.291 10.4539 44.9065C10.0025 45.522 9.39792 45.8296 8.64058 45.8296H7.41797ZM7.95872 39.9561V45.1332H8.64714C9.25206 45.1332 9.7228 44.9025 10.0597 44.4412C10.3966 43.9798 10.5651 43.3265 10.5651 42.4803C10.5651 40.7975 9.93648 39.9558 8.67959 39.9558H7.95872V39.9561Z" fill="#303030"/>
<path d="M14.4846 45.8296H12.0391V39.2598H14.3818V39.9561H12.5798V42.1414H14.2465V42.8334H12.5798V45.1335H14.4846V45.8299V45.8296Z" fill="#303030"/>
<path d="M18.6813 45.8299H18.0378L17.2655 43.9882C17.1947 43.8173 17.1258 43.6712 17.0595 43.5506C16.9931 43.43 16.9249 43.3316 16.8553 43.2551C16.7856 43.1789 16.7105 43.1231 16.6299 43.0878C16.5493 43.0528 16.4589 43.035 16.3579 43.035H15.9138V45.8295H15.373V39.2598H16.7503C16.9519 39.2598 17.1379 39.2958 17.3085 39.3673C17.4792 39.439 17.6272 39.5484 17.7526 39.6949C17.8781 39.8413 17.9761 40.0239 18.0473 40.2422C18.118 40.4605 18.1534 40.7163 18.1534 41.0096C18.1534 41.2388 18.1293 41.4487 18.0808 41.6397C18.0327 41.8306 17.9638 42.0008 17.8748 42.1506C17.7858 42.3003 17.6786 42.4279 17.5532 42.5332C17.4277 42.6385 17.2866 42.7201 17.1298 42.7784V42.7966C17.2071 42.8455 17.2742 42.9012 17.3311 42.9639C17.388 43.0266 17.442 43.1006 17.4937 43.1862C17.5452 43.2718 17.5962 43.3687 17.6465 43.477C17.6968 43.5856 17.7534 43.7113 17.8153 43.8549L18.681 45.8295L18.6813 45.8299ZM15.9142 39.9565V42.339H16.6478C16.7831 42.339 16.9078 42.3102 17.0226 42.2519C17.1375 42.1939 17.2367 42.1105 17.3202 42.0022C17.4037 41.894 17.4693 41.761 17.5163 41.6036C17.5634 41.4462 17.5871 41.2698 17.5871 41.0745C17.5871 40.7232 17.5072 40.4492 17.3472 40.252C17.1875 40.0549 16.9563 39.9565 16.6536 39.9565H15.9134H15.9142Z" fill="#303030"/>
<path d="M22.887 45.8305H22.2886L21.7997 43.9888H19.8431L19.3829 45.8305H18.7812L20.5512 39.2607H21.1112L22.8874 45.8305H22.887ZM21.6225 43.2968L20.8983 40.4975C20.8746 40.4061 20.8513 40.2592 20.8276 40.0577H20.8148C20.7933 40.2439 20.7685 40.3907 20.7408 40.4975L20.0232 43.2968H21.6225Z" fill="#303030"/>
<path d="M25.8213 39.9561H24.489V45.8296H23.9482V39.9561H22.6191V39.2598H25.821V39.9561H25.8213Z" fill="#303030"/>
<path d="M26.2012 45.5642V44.6572C26.2741 44.7487 26.3616 44.8314 26.4633 44.9046C26.5651 44.9779 26.6726 45.0398 26.7853 45.0901C26.898 45.1404 27.011 45.1794 27.1248 45.2071C27.2385 45.2344 27.3436 45.2483 27.4402 45.2483C27.7727 45.2483 28.021 45.1605 28.1851 44.9848C28.3492 44.8092 28.4313 44.5566 28.4313 44.2265C28.4313 44.0494 28.4039 43.8953 28.3492 43.7637C28.2945 43.6325 28.219 43.5126 28.1224 43.404C28.0258 43.2958 27.9117 43.1916 27.7797 43.0925C27.6477 42.9934 27.5055 42.8888 27.3534 42.7787C27.1926 42.6628 27.0424 42.5451 26.9027 42.426C26.7634 42.3068 26.642 42.1756 26.5392 42.0321C26.4364 41.8885 26.3554 41.726 26.2963 41.5441C26.2373 41.3623 26.2077 41.1495 26.2077 40.905C26.2077 40.6058 26.2537 40.3453 26.3459 40.1237C26.4382 39.9021 26.5592 39.72 26.7095 39.5764C26.8597 39.4328 27.0307 39.326 27.2229 39.2557C27.4147 39.1854 27.6105 39.1504 27.8103 39.1504C28.265 39.1504 28.5964 39.2284 28.8046 39.384V40.2498C28.5323 39.9809 28.1826 39.8468 27.7556 39.8468C27.6375 39.8468 27.5197 39.8643 27.4015 39.8996C27.2834 39.9346 27.1784 39.9922 27.0861 40.0712C26.9939 40.1507 26.9188 40.2531 26.8608 40.3781C26.8028 40.5034 26.774 40.6561 26.774 40.8361C26.774 41.0041 26.7959 41.1491 26.84 41.2712C26.8841 41.3933 26.949 41.5048 27.0347 41.6057C27.1204 41.7067 27.2251 41.8043 27.3483 41.8991C27.4715 41.9938 27.6138 42.0977 27.7746 42.2106C27.9397 42.3269 28.0965 42.4489 28.2442 42.5772C28.3922 42.7055 28.5221 42.8476 28.6336 43.0032C28.7452 43.1588 28.8338 43.3315 28.8991 43.521C28.9643 43.7105 28.9972 43.9273 28.9972 44.1715C28.9972 44.4954 28.9527 44.7695 28.8637 44.9939C28.7747 45.2184 28.6544 45.401 28.5035 45.5413C28.3521 45.6819 28.1778 45.7832 27.9806 45.8459C27.7833 45.9086 27.5751 45.9399 27.3563 45.9399C27.2834 45.9399 27.1933 45.9315 27.0861 45.9148C26.9789 45.898 26.8695 45.8736 26.758 45.8415C26.6464 45.8095 26.5406 45.7697 26.4411 45.7224C26.3412 45.675 26.2613 45.6225 26.2012 45.5642Z" fill="#303030"/>
<path d="M30.4587 45.8296H29.918V39.2598H30.4587V45.8296Z" fill="#303030"/>
<path d="M34.671 39.2598L33.1491 43.4015V45.8299H32.6083V43.4201L31.125 39.2601H31.7398L32.7728 42.2289C32.7855 42.2657 32.8231 42.4002 32.8854 42.6319H32.8949C32.9164 42.5281 32.9573 42.3936 33.0171 42.2289L34.0982 39.2601H34.671V39.2598Z" fill="#303030"/>
<path d="M38.3714 45.8296H37.773L37.284 43.9879H35.3274L34.8673 45.8296H34.2656L36.0355 39.2598H36.5956L38.3717 45.8296H38.3714ZM37.1068 43.2959L36.3827 40.4965C36.359 40.4051 36.3356 40.2582 36.3119 40.0567H36.2992C36.2777 40.2429 36.2529 40.3898 36.2252 40.4965L35.5076 43.2959H37.1068Z" fill="#303030"/>
<path d="M38.834 45.5642V44.6572C38.9069 44.7487 38.9944 44.8314 39.0962 44.9046C39.1979 44.9779 39.3055 45.0398 39.4181 45.0901C39.5308 45.1404 39.6438 45.1794 39.7576 45.2071C39.8714 45.2344 39.9764 45.2483 40.073 45.2483C40.4055 45.2483 40.6539 45.1605 40.8179 44.9848C40.982 44.8092 41.0641 44.5566 41.0641 44.2265C41.0641 44.0494 41.0367 43.8953 40.982 43.7637C40.9273 43.6325 40.8519 43.5126 40.7552 43.404C40.6586 43.2958 40.5445 43.1916 40.4125 43.0925C40.2805 42.9934 40.1383 42.8888 39.9862 42.7787C39.8254 42.6628 39.6752 42.5451 39.5355 42.426C39.3962 42.3068 39.2748 42.1756 39.172 42.0321C39.0692 41.8885 38.9882 41.726 38.9292 41.5441C38.8701 41.3623 38.8405 41.1495 38.8405 40.905C38.8405 40.6058 38.8865 40.3453 38.9787 40.1237C39.071 39.9021 39.1921 39.72 39.3423 39.5764C39.4925 39.4328 39.6635 39.326 39.8557 39.2557C40.0475 39.1854 40.2433 39.1504 40.4431 39.1504C40.8978 39.1504 41.2292 39.2284 41.4375 39.384V40.2498C41.1651 39.9809 40.8154 39.8468 40.3884 39.8468C40.2703 39.8468 40.1525 39.8643 40.0343 39.8996C39.9162 39.9346 39.8112 39.9922 39.7189 40.0712C39.6267 40.1507 39.5516 40.2531 39.4936 40.3781C39.4356 40.5034 39.4068 40.6561 39.4068 40.8361C39.4068 41.0041 39.4287 41.1491 39.4728 41.2712C39.5169 41.3933 39.5818 41.5048 39.6675 41.6057C39.7532 41.7067 39.8579 41.8043 39.9811 41.8991C40.1044 41.9938 40.2466 42.0977 40.4074 42.2106C40.5725 42.3269 40.7293 42.4489 40.877 42.5772C41.0251 42.7055 41.1549 42.8476 41.2664 43.0032C41.378 43.1588 41.4666 43.3315 41.5319 43.521C41.5972 43.7105 41.63 43.9273 41.63 44.1715C41.63 44.4954 41.5855 44.7695 41.4965 44.9939C41.4076 45.2184 41.2872 45.401 41.1363 45.5413C40.9849 45.6819 40.8106 45.7832 40.6134 45.8459C40.4161 45.9086 40.2079 45.9399 39.9891 45.9399C39.9162 45.9399 39.8261 45.9315 39.7189 45.9148C39.6117 45.898 39.5024 45.8736 39.3908 45.8415C39.2792 45.8095 39.1735 45.7697 39.0739 45.7224C38.974 45.675 38.8941 45.6225 38.834 45.5642Z" fill="#303030"/>
<path d="M43.0915 45.8296H42.5508V39.2598H43.0915V45.8296Z" fill="#303030"/>
</g>
<defs>
<clipPath id="clip0_203_1861">
<rect width="161" height="65" fill="white"/>
</clipPath>
</defs>
</svg>
